<?xml version="1.0" encoding="utf-8"?>
<!-- Generator: Adobe Illustrator 24.0.1, SVG Export Plug-In . SVG Version: 6.00 Build 0)  -->
<svg version="1.1" id="Layer_1" xmlns="http://www.w3.org/2000/svg" xmlns:xlink="http://www.w3.org/1999/xlink" x="0px" y="0px"
	 viewBox="0 0 91 27" style="enable-background:new 0 0 91 27;" xml:space="preserve">
<style type="text/css">
	.st0{fill:#F01633;}
</style>
<path id="Snook_Logo" class="st0" d="M15.6,20.7c0,3.6-2.8,5.8-7.3,5.8c-1.9,0.1-3.9-0.5-5.5-1.6c-1.4-1.2-2.2-2.8-2.2-4.6l0-0.3
	h3.3l0,0.2c0.2,2.3,1.8,3.4,4.3,3.4c2.6,0,4-0.8,4-2.7c0-1.5-1.2-2-4.4-2.5C2.7,17.5,1,16.7,1,13.2C1,11.5,1.9,10,3.2,9
	c1.4-0.9,2.9-1.3,4.5-1.3c2.9,0,6.5,1,7.1,5.5l0,0.3h-3.3l0-0.2c-0.4-1.9-1.7-2.8-3.8-2.8c-1.9,0-3.5,1-3.5,2.5
	c0,1.4,0.9,1.8,4.4,2.4l0,0C12.3,16.1,15.6,16.6,15.6,20.7z M26.2,7.7c-2.1-0.1-4,0.8-5.4,2.4V8h-3.3v18.1h3.3V15.2
	c-0.1-2.4,1.7-4.4,4.1-4.5c0.2,0,0.3,0,0.5,0c2.7,0,3.9,1.3,3.9,4.2v11.2h3.3v-11C32.6,9,29.1,7.7,26.2,7.7L26.2,7.7z M50.1,10.3
	c1.7,1.8,2.6,4.2,2.6,6.6v0.3c0.1,2.5-0.9,4.9-2.6,6.7c-1.7,1.7-4.1,2.6-6.5,2.6c-4.9,0.1-8.9-3.7-9-8.6c0-0.2,0-0.4,0-0.6V17
	c-0.2-4.9,3.6-9,8.4-9.2c0.2,0,0.4,0,0.6,0C46,7.7,48.4,8.6,50.1,10.3L50.1,10.3z M38,17.2c0,3.9,2.2,6.4,5.6,6.4
	c1.5,0.1,3-0.6,4.1-1.7c1.1-1.3,1.6-3,1.5-4.7v-0.3c0-3.9-2.1-6.3-5.6-6.3c-3.4,0-5.6,2.5-5.6,6.3V17.2z M69.8,10.3
	c1.7,1.8,2.6,4.2,2.6,6.6v0.3c0.1,2.5-0.9,4.9-2.6,6.7c-1.7,1.7-4.1,2.6-6.5,2.6c-4.9,0.1-8.9-3.7-9-8.6c0-0.2,0-0.4,0-0.6V17
	c-0.2-4.9,3.6-9,8.4-9.2c0.2,0,0.4,0,0.6,0C65.7,7.7,68.1,8.6,69.8,10.3L69.8,10.3z M57.8,17.2c0,3.9,2.1,6.3,5.6,6.3
	c3.4,0,5.6-2.5,5.6-6.3V17c0-3.9-2.2-6.4-5.6-6.4c-1.5-0.1-3,0.6-4.1,1.7c-1.1,1.3-1.6,3-1.5,4.7V17.2z M81.7,15.6l7.8-7.5L89.7,8
	h-4l-8.2,7.7V0.5h-3.3v25.6h3.3v-6.5l2-1.9l6.7,8.4l0,0h4.1L81.7,15.6z"/>
</svg>
